<svg id="Layer_1" data-name="Layer 1" xmlns="http://www.w3.org/2000/svg" viewBox="0 0 343.5 352.47"><defs><style>.cls-1{fill:#e6e6e6;}.cls-2,.cls-5{fill:#f0f0f0;}.cls-18,.cls-3{fill:#fafafa;}.cls-13,.cls-15,.cls-4{fill:#fff;}.cls-5{opacity:0.6;}.cls-12,.cls-13,.cls-15,.cls-16,.cls-18,.cls-5,.cls-8{isolation:isolate;}.cls-6{fill:#f5f5f5;}.cls-12,.cls-7{fill:#407bff;}.cls-18,.cls-8{opacity:0.4;}.cls-12,.cls-16,.cls-9{opacity:0.2;}.cls-10{fill:#ffc69f;}.cls-11{fill:#7f3e3b;}.cls-13{opacity:0.1;}.cls-14{fill:#263238;}.cls-15{opacity:0.3;}.cls-17{fill:#2c6bdb;}</style></defs><rect class="cls-1" x="205.21" y="168.59" width="28.32" height="140.9"/><polygon class="cls-2" points="210.59 309.49 205.21 309.49 205.21 294.19 216.23 294.19 210.59 309.49"/><rect class="cls-1" x="311.07" y="168.59" width="28.32" height="140.9"/><rect class="cls-2" x="205.21" y="168.59" width="110.54" height="131.51"/><rect class="cls-1" x="209.38" y="255.41" width="49.29" height="25.57"/><rect class="cls-1" x="262.28" y="255.41" width="49.29" height="25.57"/><path class="cls-2" d="M282.06,259.7h9.76A15.43,15.43,0,0,0,303,254.88H270.86A15.5,15.5,0,0,0,282.06,259.7Z" transform="translate(0 -0.01)"/><path class="cls-2" d="M228.66,259.7h9.74a15.4,15.4,0,0,0,11.2-4.82H217.46A15.46,15.46,0,0,0,228.66,259.7Z" transform="translate(0 -0.01)"/><rect class="cls-1" x="209.38" y="215.66" width="49.29" height="25.57"/><rect class="cls-1" x="262.29" y="215.66" width="49.29" height="25.57"/><path class="cls-2" d="M282.06,220h9.76A15.4,15.4,0,0,0,303,215.13H270.86A15.4,15.4,0,0,0,282.06,220Z" transform="translate(0 -0.01)"/><path class="cls-2" d="M228.66,220h9.74a15.4,15.4,0,0,0,11.2-4.82H217.46A15.4,15.4,0,0,0,228.66,220Z" transform="translate(0 -0.01)"/><rect class="cls-1" x="209.38" y="175.92" width="49.29" height="25.57"/><rect class="cls-1" x="262.28" y="175.92" width="49.29" height="25.57"/><path class="cls-2" d="M282.06,180.21h9.76A15.43,15.43,0,0,0,303,175.39H270.86A15.5,15.5,0,0,0,282.06,180.21Z" transform="translate(0 -0.01)"/><path class="cls-2" d="M228.66,180.21h9.74a15.4,15.4,0,0,0,11.2-4.82H217.46A15.46,15.46,0,0,0,228.66,180.21Z" transform="translate(0 -0.01)"/><polygon class="cls-2" points="310.38 309.49 315.75 309.49 315.75 294.19 304.74 294.19 310.38 309.49"/><path class="cls-2" d="M107.47,309.5h1.93l5.53-27.26,1-4.77,6-29.7h23.13l12.53,61.73h1.94l-12.77-62.87a.94.94,0,0,0-.93-.75H121.16a.92.92,0,0,0-.92.75l-5.3,26.09-1,4.76Z" transform="translate(0 -0.01)"/><path class="cls-2" d="M70.34,309.5h1.93l12.54-61.73h23.12l6,29.71,1,4.76,5.54,27.26h1.93l-6.5-32-1-4.75-5.3-26.09a.94.94,0,0,0-.93-.75H84a.94.94,0,0,0-.93.75Z" transform="translate(0 -0.01)"/><path class="cls-2" d="M148.57,238.69H81.3a5.83,5.83,0,0,0-5.82,5.81v.2a2.12,2.12,0,0,0,2.12,2.12h74.66a2.12,2.12,0,0,0,2.13-2.11h0v-.2A5.83,5.83,0,0,0,148.57,238.69Z" transform="translate(0 -0.01)"/><path class="cls-2" d="M40,309.5h1.93l5.51-27.25,1-4.75,6-29.7H77.55l12.53,61.7H92L79.25,246.64a.94.94,0,0,0-.93-.75H53.65a.92.92,0,0,0-.92.75L47.4,272.73l-1,4.76Z" transform="translate(0 -0.01)"/><path class="cls-2" d="M2.83,309.5H4.77L17.3,247.78H40.4l6,29.71,1,4.76L53,309.5h1.93l-6.49-32-1-4.75-5.3-26.09a.94.94,0,0,0-.93-.75H16.53a.94.94,0,0,0-.93.75Z" transform="translate(0 -0.01)"/><path class="cls-2" d="M81.06,238.69H13.79A5.83,5.83,0,0,0,8,244.5v.2a2.12,2.12,0,0,0,2.12,2.12H84.76a2.12,2.12,0,0,0,2.12-2.12v-.2A5.83,5.83,0,0,0,81.06,238.69Z" transform="translate(0 -0.01)"/><rect class="cls-1" x="16.84" width="96.65" height="154.83"/><rect class="cls-2" x="10.52" width="100.01" height="154.83"/><rect class="cls-1" x="16.84" y="154.82" width="96.65" height="11.74"/><rect class="cls-2" x="0.01" y="154.82" width="100.01" height="11.74"/><rect class="cls-3" x="19.37" y="8.83" width="82.33" height="137.15"/><polygon class="cls-4" points="102.39 145.98 73.44 8.83 48.94 8.83 77.89 145.98 102.39 145.98"/><path class="cls-2" d="M95.73,129.61a.63.63,0,0,0,.63-.63h0V14.6a.63.63,0,1,0-1.26,0h0V129a.63.63,0,0,0,.63.63Z" transform="translate(0 -0.01)"/><polygon class="cls-4" points="72.63 145.98 43.68 8.83 34.13 8.83 63.08 145.98 72.63 145.98"/><rect class="cls-1" x="19.36" y="8.84" width="1.12" height="137.15"/><polygon class="cls-5" points="8.43 15.62 105.08 15.62 105.89 12.27 9.24 12.27 8.43 15.62"/><polygon class="cls-5" points="8.43 23.44 105.08 23.44 105.89 20.09 9.24 20.09 8.43 23.44"/><polygon class="cls-5" points="8.43 31.26 105.08 31.26 105.89 27.9 9.24 27.9 8.43 31.26"/><polygon class="cls-5" points="8.43 39.07 105.08 39.07 105.89 35.72 9.24 35.72 8.43 39.07"/><polygon class="cls-5" points="8.43 46.89 105.08 46.89 105.89 43.53 9.24 43.53 8.43 46.89"/><polygon class="cls-5" points="8.43 54.71 105.08 54.71 105.89 51.35 9.24 51.35 8.43 54.71"/><ellipse id="_Path_" data-name=" Path " class="cls-6" cx="171.75" cy="341.15" rx="171.75" ry="11.32"/><path class="cls-7" d="M78.57,45.57h58.21a2.12,2.12,0,0,1,2.12,2.12h0v85.74a7.32,7.32,0,0,1-7.31,7.33H91.16a15.61,15.61,0,0,1-15.61-15.61h0V48.59a3,3,0,0,1,3-3Z" transform="translate(0 -0.01)"/><path class="cls-8" d="M76.29,45.57h61.48a1.14,1.14,0,0,1,1.13,1.13h0v87.07a7,7,0,0,1-7,7H89.77a14.22,14.22,0,0,1-14.22-14.22h0V46.31A.74.74,0,0,1,76.29,45.57Z" transform="translate(0 -0.01)"/><path class="cls-7" d="M81.68,45.57H138a.9.9,0,0,1,.9.9V134a6.74,6.74,0,0,1-6.73,6.75h-37a14,14,0,0,1-14-14V46.08a.5.5,0,0,1,.49-.51Z" transform="translate(0 -0.01)"/><path class="cls-7" d="M90,140.75h50.89a10.61,10.61,0,0,0,10.6-10.61v-4H100.05v4A10.61,10.61,0,0,1,90,140.75Z" transform="translate(0 -0.01)"/><g class="cls-9"><path d="M96.77,140.75h45.3c5.21,0,9.44-4.75,9.44-10.61v-4H105.7v4C105.7,135.83,101.74,140.5,96.77,140.75Z" transform="translate(0 -0.01)"/></g><path class="cls-4" d="M129.29,115.16H92.7a.46.46,0,0,1,0-.91h36.59a.46.46,0,0,1,.14.91A.33.33,0,0,1,129.29,115.16Z" transform="translate(0 -0.01)"/><path class="cls-4" d="M130.06,99.76h-38a.48.48,0,0,1-.46-.46.46.46,0,0,1,.46-.45h38a.45.45,0,0,1,.45.45A.46.46,0,0,1,130.06,99.76Z" transform="translate(0 -0.01)"/><path class="cls-4" d="M111,107.5H91.56a.46.46,0,0,1-.46-.45.48.48,0,0,1,.46-.46H111a.46.46,0,0,1,.45.46A.45.45,0,0,1,111,107.5Z" transform="translate(0 -0.01)"/><path class="cls-4" d="M109.52,107.5H93a.45.45,0,0,1-.45-.45.46.46,0,0,1,.45-.46h16.49a.47.47,0,0,1,.46.46.45.45,0,0,1-.45.45Z" transform="translate(0 -0.01)"/><path class="cls-4" d="M117.32,83.29h-25a.46.46,0,1,1,0-.92h25a.46.46,0,1,1,0,.92Z" transform="translate(0 -0.01)"/><path class="cls-4" d="M128.93,83.29H121.3a.46.46,0,1,1,0-.92h7.63a.47.47,0,0,1,.46.46.46.46,0,0,1-.46.46Z" transform="translate(0 -0.01)"/><path class="cls-4" d="M130.06,91H102.94a.46.46,0,0,1,0-.91h27.12a.46.46,0,0,1,0,.91Z" transform="translate(0 -0.01)"/><path class="cls-4" d="M100.26,91H92a.46.46,0,0,1-.14-.91h8.38a.46.46,0,0,1,.14.91Z" transform="translate(0 -0.01)"/><path class="cls-4" d="M129.29,76.77H92.7a.46.46,0,0,1,0-.91h36.59a.46.46,0,0,1,.14.91A.33.33,0,0,1,129.29,76.77Z" transform="translate(0 -0.01)"/><path class="cls-4" d="M129.29,61.37H92.7a.46.46,0,1,1,0-.92h36.59a.47.47,0,0,1,.46.46.46.46,0,0,1-.46.46Z" transform="translate(0 -0.01)"/><path class="cls-4" d="M106.13,69.06H92.28a.46.46,0,0,1,0-.91h13.85a.46.46,0,0,1,.14.91Z" transform="translate(0 -0.01)"/><path class="cls-4" d="M129,69.06H112.52a.46.46,0,0,1-.14-.91.33.33,0,0,1,.14,0H129a.46.46,0,0,1,.14.91Z" transform="translate(0 -0.01)"/><path class="cls-10" d="M274.78,104.5c1.14,2.37,2,4.61,3,7s1.74,4.67,2.51,7.06a88.13,88.13,0,0,1,3.49,14.86c.11.63.16,1.31.23,2l.09,1a2,2,0,0,0,0,.52v.65a21.41,21.41,0,0,1-.39,4.52,48.63,48.63,0,0,1-2.11,7.6,83.69,83.69,0,0,1-6.37,13.55l-5.08-2.15c1.14-4.56,2.27-9.21,3.13-13.7a52.78,52.78,0,0,0,.89-6.51,14.12,14.12,0,0,0-.05-2.68l-.11-.63-.15-.8c-.1-.53-.17-1.06-.31-1.6a103.13,103.13,0,0,0-3.85-13c-.76-2.18-1.6-4.34-2.44-6.5s-1.78-4.35-2.63-6.36Z" transform="translate(0 -0.01)"/><path class="cls-10" d="M270.4,159.76l-3.9,3.8,8.5,4s2.07-3.6.64-6.86Z" transform="translate(0 -0.01)"/><polygon class="cls-11" points="263.33 169.22 270.51 172.16 274.98 167.51 266.47 163.55 263.33 169.22"/><path class="cls-12" d="M117.68,165.13a72,72,0,1,0-79.57-63.57,72,72,0,0,0,79.57,63.57Z" transform="translate(0 -0.01)"/><path class="cls-13" d="M65.3,36.86l109.49,87.49c.47-1,.92-2,1.34-3a71.1,71.1,0,0,0,5.21-20.48h0L86.76,25.3A71.13,71.13,0,0,0,65.3,36.86Z" transform="translate(0 -0.01)"/><path class="cls-13" d="M40,75.19l103,82.25a71.94,71.94,0,0,0,24.77-21.28L55.33,46.33A72.18,72.18,0,0,0,40,75.19Z" transform="translate(0 -0.01)"/><path class="cls-7" d="M287.05,174.44a10.82,10.82,0,0,0-1.73-5.1,7.43,7.43,0,0,0-2.95-2.61l-6.83-3.35c-4.54-2.25-9.12-4.44-13.69-6.63s-9.17-4.34-13.75-6.51-9.2-4.28-13.83-6.35q-13.87-6.28-27.87-12.22c-4.68-2-9.38-3.92-14.1-5.8h0a5.87,5.87,0,0,1-3.44-7.23,83,83,0,1,0-11.11,22.52,5.86,5.86,0,0,1,7.83-1.67h0q6.54,3.9,13.18,7.67,13.23,7.54,26.66,14.7c4.46,2.42,9,4.75,13.45,7.12s9,4.68,13.53,7,9,4.59,13.59,6.83l6.81,3.38a7.4,7.4,0,0,0,3.87.76,10.64,10.64,0,0,0,5.09-1.73A11.29,11.29,0,0,0,287.05,174.44ZM80.68,152.33a65.53,65.53,0,1,1,87.77-29.76,65.53,65.53,0,0,1-87.77,29.76Z" transform="translate(0 -0.01)"/><path class="cls-14" d="M237.07,73.61c0,.6-.32,1.08-.7,1.08s-.7-.48-.71-1.07.32-1.12.74-1.12S237.07,73,237.07,73.61Z" transform="translate(0 -0.01)"/><path class="cls-10" d="M236.81,74.69A21.37,21.37,0,0,1,234,79.76a3.39,3.39,0,0,0,2.83.53Z" transform="translate(0 -0.01)"/><path class="cls-14" d="M239.16,70.33a.35.35,0,0,0,.35-.35.35.35,0,0,0-.14-.28,3.44,3.44,0,0,0-3.13-.54.35.35,0,0,0-.15.47.34.34,0,0,0,.4.18h0a2.76,2.76,0,0,1,2.47.45A.31.31,0,0,0,239.16,70.33Z" transform="translate(0 -0.01)"/><path class="cls-10" d="M257.29,78.08c-1.05,5.38-2.1,15.22,1.66,18.81,0,0-1.47,5.45-11.46,5.45-11,0-5.25-5.45-5.25-5.45,6-1.43,5.84-5.88,4.8-10Z" transform="translate(0 -0.01)"/><path class="cls-14" d="M260.92,93.5c.83.27-.26,5.21-.26,5.21s-1.37,3.45-18.39,2.25c-1.3-.1-.8-4.84.44-5.53C246.71,93.25,258.19,92.64,260.92,93.5Z" transform="translate(0 -0.01)"/><path class="cls-7" d="M295.4,300.13c.93-.09,2.26-1.78,2.64-2.4a.17.17,0,0,0,0-.19.19.19,0,0,0-.17-.07c-.11,0-2.53.46-3.11,1.39a.82.82,0,0,0-.1.68.69.69,0,0,0,.57.59Zm2.12-2.23c-.65.9-1.72,2-2.24,1.88,0,0-.2,0-.29-.34a.42.42,0,0,1,.07-.39c.34-.55,1.69-1,2.5-1.15Z" transform="translate(0 -0.01)"/><path class="cls-7" d="M297.45,297.9a5.07,5.07,0,0,0,.54-.09.2.2,0,0,0,.12-.13.18.18,0,0,0-.06-.17c-.07-.06-1.68-1.44-2.78-1.34h0a.9.9,0,0,0-.69.36.56.56,0,0,0-.07.71C294.9,297.82,296.46,298,297.45,297.9Zm.09-.35c-1,.12-2.46-.08-2.74-.49a.28.28,0,0,1,.06-.31.64.64,0,0,1,.44-.23h0a4.21,4.21,0,0,1,2.24,1Z" transform="translate(0 -0.01)"/><path class="cls-7" d="M226.7,326.43a13.19,13.19,0,0,0,2.26-.2.18.18,0,0,0,.13-.15.16.16,0,0,0-.08-.17c-.11-.07-2.68-1.53-3.9-1.2a.88.88,0,0,0-.55.41.66.66,0,0,0,0,.76C224.85,326.3,225.76,326.43,226.7,326.43Zm1.69-.46c-1.36.19-3.22.18-3.56-.29-.05-.07-.09-.17,0-.39a.53.53,0,0,1,.34-.24c.78-.21,2.33.45,3.23.92Z" transform="translate(0 -0.01)"/><path class="cls-7" d="M228.92,326.23h.1a.17.17,0,0,0,.07-.16,4.92,4.92,0,0,0-1.14-2.83,1.25,1.25,0,0,0-1-.3.58.58,0,0,0-.65.49c-.13.83,1.62,2.42,2.51,2.82Zm-1.79-3a.9.9,0,0,1,.6.23,4.05,4.05,0,0,1,1,2.26c-.9-.54-2.1-1.79-2-2.29,0,0,0-.16.34-.19Z" transform="translate(0 -0.01)"/><polygon class="cls-10" points="236.99 326.05 229.65 326.05 228.92 309.03 236.26 309.03 236.99 326.05"/><polygon class="cls-10" points="304.51 292.34 298.77 296.93 284.19 286.8 289.93 282.22 304.51 292.34"/><path class="cls-14" d="M297.73,296.65l5.86-5.81a.65.65,0,0,1,.8-.08l5.62,3.61a1.07,1.07,0,0,1,.32,1.49,1,1,0,0,1-.16.2c-2.08,2-3.19,2.86-5.77,5.41-1.59,1.58-5.46,6.28-7.65,8.45s-4.62.29-3.92-.8c3.15-4.86,4.23-8.87,4.37-11.31A1.81,1.81,0,0,1,297.73,296.65Z" transform="translate(0 -0.01)"/><path class="cls-14" d="M229.7,325.21h8a.65.65,0,0,1,.63.5l1.45,6.53a1.06,1.06,0,0,1-.79,1.27l-.27,0c-2.89,0-7.07-.21-10.71-.21-4.25,0-7.93.23-12.91.23-3,0-3.86-3.05-2.59-3.33,5.74-1.25,10.43-1.39,15.4-4.45A3.45,3.45,0,0,1,229.7,325.21Z" transform="translate(0 -0.01)"/><path class="cls-7" d="M273.4,99.09c6.37,3,9,23.56,9,23.56l-14.65,5.75a116.23,116.23,0,0,1-5.51-17.16C260.21,102,266.91,96,273.4,99.09Z" transform="translate(0 -0.01)"/><path class="cls-15" d="M273.4,99.09c6.37,3,9,23.56,9,23.56l-14.65,5.75a116.23,116.23,0,0,1-5.51-17.16C260.21,102,266.91,96,273.4,99.09Z" transform="translate(0 -0.01)"/><path class="cls-16" d="M263.93,105.12a8.56,8.56,0,0,0-1.56-.57,13.45,13.45,0,0,0-.06,6.7,117.26,117.26,0,0,0,5.5,17.15l4.83-1.89C271.75,121.14,269,107.56,263.93,105.12Z" transform="translate(0 -0.01)"/><path class="cls-7" d="M231,98.93s-7.82,8.83-.44,63.5H269.8c.27-6-3.52-35.46,2.3-63.88A102.08,102.08,0,0,0,259,96.89a145.55,145.55,0,0,0-16.71,0A73.22,73.22,0,0,0,231,98.93Z" transform="translate(0 -0.01)"/><path class="cls-15" d="M231,98.93s-7.82,8.83-.44,63.5H269.8c.27-6-3.52-35.46,2.3-63.88A102.08,102.08,0,0,0,259,96.89a145.55,145.55,0,0,0-16.71,0A73.22,73.22,0,0,0,231,98.93Z" transform="translate(0 -0.01)"/><path class="cls-16" d="M238.85,110.65c-1.78-5.34-6.06-7.05-10.42-3.88-.88,5.18-1.5,13.53-.79,26.77l7.67-.07S241.5,118.6,238.85,110.65Z" transform="translate(0 -0.01)"/><path class="cls-10" d="M237.4,108.5c-.32,2.68-.77,5.11-1.25,7.64s-1.06,5-1.71,7.49a85.49,85.49,0,0,1-5.22,14.82c-.57,1.23-1.23,2.44-1.93,3.65-.37.61-.72,1.21-1.14,1.82a11.73,11.73,0,0,1-1.86,2.29,13.27,13.27,0,0,1-4.81,2.85,22,22,0,0,1-4.46,1,36.77,36.77,0,0,1-8.19.1c-1.32-.11-2.62-.28-3.91-.51s-2.53-.47-3.87-.83l.66-5.47a64.93,64.93,0,0,0,13.51-2,16.26,16.26,0,0,0,2.62-1,3.67,3.67,0,0,0,1.39-1.11c-.07.07.66-1.14,1.09-2s.9-2,1.32-3a67.55,67.55,0,0,0,2.21-6.47c.68-2.22,1.25-4.5,1.79-6.8s1-4.62,1.49-7,.87-4.74,1.23-7Z" transform="translate(0 -0.01)"/><path class="cls-7" d="M240.76,104.29c2.07,6.71-6.32,26.71-6.32,26.71l-17.7-4.45a82.51,82.51,0,0,1,5.43-18.39C227.92,95.71,238.28,96.23,240.76,104.29Z" transform="translate(0 -0.01)"/><path class="cls-15" d="M240.76,104.29c2.07,6.71-6.32,26.71-6.32,26.71l-17.7-4.45a82.51,82.51,0,0,1,5.43-18.39C227.92,95.71,238.28,96.23,240.76,104.29Z" transform="translate(0 -0.01)"/><path class="cls-10" d="M200,143.38l-8.32-.2,4,8.65s3.39.45,6.17-4.12l2.93-3.49-3.38-.72A10.87,10.87,0,0,0,200,143.38Z" transform="translate(0 -0.01)"/><polygon class="cls-10" points="186.42 144.78 191.19 151.95 195.68 151.82 191.68 143.17 186.42 144.78"/><polygon class="cls-16" points="228.92 309.04 229.29 317.81 236.64 317.81 236.27 309.04 228.92 309.04"/><polygon class="cls-16" points="289.93 282.22 284.19 286.81 291.71 292.03 297.45 287.43 289.93 282.22"/><path class="cls-10" d="M256.83,72.34c-.44,7.28-.33,11.56-4,15.3-5.52,5.62-14.51,2.3-16.25-5C235,76.1,236,65.3,243.11,62.39a10,10,0,0,1,13.72,10Z" transform="translate(0 -0.01)"/><path class="cls-14" d="M262.75,65.56s3.83,1.14,2.64,5.51c-1.81,6.64-6.07,14.28-11.58,14.76-6.84.61-9.93-6.46-10.83-13.77-4.1-2.81-7.14-5.44-6.17-8.37,1.5-4.5,7-8.37,15.6-7.37S265.4,62.92,262.75,65.56Z" transform="translate(0 -0.01)"/><path class="cls-10" d="M247.15,73.56a8.23,8.23,0,0,1-2.07,4.87c-1.6,1.76-3.27.66-3.55-1.48-.26-1.94.27-5.19,2.23-6.16S247.28,71.38,247.15,73.56Z" transform="translate(0 -0.01)"/><path class="cls-7" d="M244.45,162.43S242,212,246.8,232.93c7.64,33.22,41.27,59.84,41.27,59.84l10.82-8.65s-27.67-20.62-30.15-48.25c-2.24-24.84,1.06-53.37,1.06-73.44Z" transform="translate(0 -0.01)"/><path class="cls-16" d="M244.45,162.43S242,212,246.8,232.93c7.64,33.22,41.27,59.84,41.27,59.84l10.82-8.65s-27.67-20.62-30.15-48.25c-2.24-24.84,1.06-53.37,1.06-73.44Z" transform="translate(0 -0.01)"/><path class="cls-16" d="M248.13,177.1c-1-1.93-3,3.82-4.31,11.2,0,10.18.18,21.76,1.07,31.57C251.69,207.32,250.25,181.1,248.13,177.1Z" transform="translate(0 -0.01)"/><path class="cls-17" d="M283.18,290.64l4.09,3.18,12.48-10.11L296,280.32Z" transform="translate(0 -0.01)"/><path class="cls-18" d="M283.18,290.64l4.09,3.18,12.48-10.11L296,280.32Z" transform="translate(0 -0.01)"/><path class="cls-7" d="M230.51,162.43s-11.07,46.9-11.84,69.3c-.88,25.13,7.89,84.39,7.89,84.39H239s1.53-59.72,2.08-82.61c.6-24.95,15.25-71.08,15.25-71.08Z" transform="translate(0 -0.01)"/><path class="cls-16" d="M230.51,162.43s-11.07,46.9-11.84,69.3c-.88,25.13,7.89,84.39,7.89,84.39H239s1.53-59.72,2.08-82.61c.6-24.95,15.25-71.08,15.25-71.08Z" transform="translate(0 -0.01)"/><path class="cls-17" d="M224.17,311.16c-.06,0,.7,5.17.7,5.17H240l.41-4.61Z" transform="translate(0 -0.01)"/><path class="cls-18" d="M224.17,311.16c-.06,0,.7,5.17.7,5.17H240l.41-4.61Z" transform="translate(0 -0.01)"/></svg>