<svg id="Layer_1" data-name="Layer 1" xmlns="http://www.w3.org/2000/svg" viewBox="0 0 510.3 467.58"><defs><style>.cls-1{fill:#e6e6e6;}</style></defs><path class="cls-1" d="M83.79,381q9.45-31.29,18.9-62.57,16-53.46,32-106.93a6.51,6.51,0,0,1,2.37-3.65v5.43q0,66.48,0,133c0,24.67,8.38,45.78,26.78,62.44,14.29,12.93,31.26,20.09,50.58,20.13q151.88.27,303.75.12h7.15c-3.47,11-6.79,21.5-10.08,32-3.11,9.94-6.14,19.91-9.28,29.85-8.08,25.57-33.18,39.24-59.49,32.2Q305,485.11,163.66,447.14c-13.9-3.73-27.79-7.51-41.71-11.17-20.13-5.29-32.75-17.83-37.33-38.28a9.24,9.24,0,0,0-.83-1.78Z" transform="translate(-83.79 -57.21)"/><path class="cls-1" d="M380.91,397.39q-77.93,0-155.85,0c-21.27,0-37.88-8.33-49.09-26.61a50,50,0,0,1-7.35-26.49q-.1-117,0-234c.08-29.95,23.82-53.06,53.7-53.07q159.07,0,318.17,0c29.88,0,53.27,23.42,53.28,53.36.05,76.85-.48,153.7.28,230.54.28,28.23-20.73,56.66-56.33,56.37C485.47,397.07,433.19,397.39,380.91,397.39ZM551.1,260.69V113.63c0-10.5-3.17-13.69-13.59-13.69H225.22c-10.51,0-13.93,3.44-13.93,14V310.48c2-1.9,3.36-3.07,4.6-4.31q25.89-25.86,51.78-51.76c17.63-17.61,39.49-17.72,57.11-.2,7.76,7.73,15.36,15.61,23.34,23.73,1.87-2.2,3.38-3.93,4.84-5.69,24.55-29.44,49-59,73.68-88.31,16.06-19.08,42.13-19.05,58.45-.16,14,16.2,27.88,32.51,41.82,48.76C534.65,241.56,542.4,250.57,551.1,260.69Z" transform="translate(-83.79 -57.21)"/><path class="cls-1" d="M275.2,206a42.83,42.83,0,0,1-42.86-42.52c0-23,19-42.38,41.81-42.51,24.08-.15,43.41,18.57,43.6,42.2C317.93,186.53,298.72,205.87,275.2,206Z" transform="translate(-83.79 -57.21)"/></svg>